<svg id="Layer_1" enable-background="new 0 0 512 512" height="512" viewBox="0 0 512 512" width="512" xmlns="http://www.w3.org/2000/svg"><g><g><g><g><circle cx="256" cy="256" fill="#cc8b66" r="132.837"/><path d="m256 123.163c-6.798 0-13.477.513-20 1.499 63.874 9.646 112.837 64.773 112.837 131.338s-48.963 121.692-112.837 131.338c6.523.985 13.202 1.499 20 1.499 73.364 0 132.837-59.473 132.837-132.837s-59.473-132.837-132.837-132.837z" fill="#b06a41"/><g><g><path d="m256 460.334c-46.788 0-84.854-38.065-84.854-84.853 0-8.684 7.065-15.749 15.749-15.749s15.748 7.065 15.748 15.749c0 29.421 23.936 53.356 53.356 53.356s53.356-23.936 53.356-53.356c0-8.684 7.064-15.749 15.748-15.749s15.749 7.065 15.749 15.749c.002 46.788-38.064 84.853-84.852 84.853z" fill="#87dbff"/><circle cx="256" cy="440.195" fill="#ffcab9" r="37.376"/></g><g><path d="m325.104 152.267c-8.684 0-15.748-7.065-15.748-15.749 0-29.421-23.936-53.356-53.356-53.356s-53.356 23.936-53.356 53.356c0 8.684-7.064 15.749-15.748 15.749s-15.749-7.065-15.749-15.749c0-46.788 38.065-84.853 84.854-84.853s84.854 38.065 84.854 84.853c-.001 8.684-7.067 15.749-15.751 15.749z" fill="#8affb3"/><circle cx="256" cy="71.804" fill="#ffcab9" r="37.376"/></g></g><g><g><path d="m136.519 340.853c-46.788 0-84.854-38.065-84.854-84.853s38.065-84.853 84.854-84.853c8.684 0 15.748 7.064 15.748 15.748s-7.064 15.749-15.748 15.749c-29.421 0-53.356 23.936-53.356 53.356s23.936 53.356 53.356 53.356c8.684 0 15.748 7.065 15.748 15.749s-7.065 15.748-15.748 15.748z" fill="#ffea00"/><circle cx="71.805" cy="256" fill="#ffcab9" r="37.376"/></g><g><path d="m375.481 340.853c-8.684 0-15.748-7.064-15.748-15.748s7.064-15.749 15.748-15.749c29.421 0 53.356-23.936 53.356-53.356s-23.936-53.356-53.356-53.356c-8.684 0-15.748-7.065-15.748-15.749s7.064-15.748 15.748-15.748c46.788 0 84.854 38.065 84.854 84.853s-38.065 84.853-84.854 84.853z" fill="#ff59ac"/><circle cx="440.195" cy="256" fill="#ffcab9" r="37.376"/></g></g></g><g><path d="m490.695 45.773h-101c-5.523 0-10 4.477-10 10v56.139c0 5.523 4.477 10 10 10h39.5l12.75 22.314 12.75-22.314h36c5.523 0 10-4.477 10-10v-56.139c0-5.523-4.477-10-10-10z" fill="#fff6e0"/><path d="m490.695 45.773h-40c5.523 0 10 4.477 10 10v56.139c0 5.523-4.477 10-10 10h4 36c5.523 0 10-4.477 10-10v-56.139c0-5.523-4.477-10-10-10z" fill="#fff0cc"/><path d="m21.305 466.226h101c5.523 0 10-4.477 10-10v-56.139c0-5.523-4.477-10-10-10h-37.5l-12.75-22.314-12.75 22.314h-38c-5.523 0-10 4.477-10 10v56.139c0 5.523 4.477 10 10 10z" fill="#fff6e0"/><path d="m82.305 390.087c5.523 0 10 4.477 10 10v56.139c0 5.523-4.477 10-10 10h40c5.523 0 10-4.477 10-10v-56.139c0-5.523-4.477-10-10-10h-37.5z" fill="#fff0cc"/></g><path d="m7.5 103.804v-64c0-5.523 4.477-10 10-10h103.139c5.523 0 10 4.477 10 10v19.5l22.314 12.75-22.314 12.75v19c0 5.523-4.477 10-10 10h-103.139c-5.523 0-10-4.477-10-10z" fill="#fff6e0"/><path d="m130.639 59.304v-19.5c0-5.523-4.477-10-10-10h-40c5.523 0 10 4.477 10 10v19.5 25.5 19c0 5.523-4.477 10-10 10h40c5.523 0 10-4.477 10-10v-19l22.314-12.75z" fill="#fff0cc"/><path d="m504.5 408.195v64c0 5.523-4.477 10-10 10h-103.139c-5.523 0-10-4.477-10-10v-19.5l-22.314-12.75 22.314-12.75v-19c0-5.523 4.477-10 10-10h103.139c5.523 0 10 4.477 10 10z" fill="#fff6e0"/><path d="m494.5 398.195h-40c5.523 0 10 4.477 10 10v64c0 5.523-4.477 10-10 10h40c5.523 0 10-4.477 10-10v-64c0-5.523-4.477-10-10-10z" fill="#fff0cc"/></g></g><g><path d="m364.153 345.395c3.354 1.88 7.217 2.958 11.328 2.958 17.559 0 34.653-4.97 49.437-14.373 14.244-9.059 25.728-21.804 33.246-36.871 35.703-15.661 35.684-66.568.004-82.217-15.581-31.229-47.703-51.246-82.686-51.246-4.111 0-7.974 1.077-11.328 2.958-5.651-6.832-11.925-13.106-18.757-18.757 1.88-3.354 2.958-7.218 2.958-11.329 0-34.982-20.016-67.104-51.245-82.684-15.662-35.701-66.57-35.68-82.217 0-31.229 15.581-51.245 47.702-51.245 82.684 0 4.11 1.077 7.972 2.956 11.326-6.829 5.65-13.114 11.922-18.766 18.754-3.352-1.877-7.211-2.952-11.318-2.952-17.559 0-34.653 4.97-49.437 14.373-14.244 9.059-25.728 21.804-33.246 36.871-35.704 15.662-35.683 66.572 0 82.218 7.518 15.067 19.002 27.812 33.246 36.871 14.783 9.403 31.878 14.373 49.437 14.373 4.111 0 7.974-1.077 11.328-2.958 5.652 6.833 11.926 13.106 18.757 18.757-1.88 3.354-2.958 7.217-2.958 11.329 0 34.982 20.016 67.104 51.245 82.684 15.662 35.701 66.57 35.68 82.217 0 31.229-15.581 51.245-47.702 51.245-82.684 0-4.112-1.077-7.975-2.958-11.329 6.832-5.65 13.106-11.924 18.757-18.756zm-39.049 6.838c-11.845 0-21.642 8.906-23.064 20.372-29.049 11.629-63.032 11.629-92.082 0-1.863-15.023-18.122-24.423-32.05-18.564-7.38-5.884-14.065-12.569-19.951-19.95 5.86-13.93-3.543-30.191-18.569-32.051-11.888-30.066-10.656-61.965-.017-92.078 15.028-1.848 24.442-18.101 18.594-32.035 5.886-7.382 12.569-14.082 19.948-19.967 13.93 5.857 30.187-3.547 32.047-18.572 29.097-11.621 62.985-11.621 92.08.001 1.86 15.026 18.121 24.429 32.051 18.569 7.381 5.885 14.065 12.57 19.951 19.95-5.864 13.937 3.553 30.205 18.588 32.053 10.593 30.182 11.888 61.965-.019 92.078-15.026 1.86-24.429 18.121-18.569 32.051-5.885 7.38-12.57 14.065-19.95 19.95-2.767-1.163-5.803-1.807-8.988-1.807zm-37.354 56.279c-6.281-6.294-14.419-10.726-23.508-12.421 12.131-.697 23.989-2.939 35.443-6.695-2.296 7.208-6.366 13.771-11.935 19.116zm-63.495-.005c-5.517-5.314-9.606-11.891-11.919-19.104 11.448 3.752 23.298 5.992 35.423 6.689-9.088 1.694-17.224 6.124-23.504 12.415zm-108.346-160.747c-1.695-9.09-6.127-17.229-12.422-23.51 5.309-5.502 11.903-9.577 19.106-11.896-3.748 11.452-5.986 23.306-6.684 35.406zm0 16.482c.698 12.127 2.939 23.988 6.696 35.446-7.212-2.294-13.773-6.364-19.119-11.937 6.295-6.281 10.728-14.419 12.423-23.509zm108.346-160.75c6.282 6.293 14.42 10.723 23.51 12.417-12.11.698-23.971 2.937-35.429 6.69 2.312-7.214 6.401-13.792 11.919-19.107zm63.49 0c5.518 5.314 9.607 11.893 11.92 19.107-11.458-3.753-23.319-5.992-35.429-6.69 9.089-1.693 17.227-6.124 23.509-12.417zm108.346 160.75c1.695 9.087 6.125 17.223 12.417 23.503-5.314 5.518-11.892 9.606-19.105 11.919 3.752-11.451 5.991-23.303 6.688-35.422zm0-16.482c-.698-12.107-2.938-23.967-6.69-35.425 7.214 2.313 13.793 6.402 19.107 11.92-6.293 6.28-10.723 14.417-12.417 23.505zm-20.61 85.593c-10.298 0-10.799-16.497 0-16.497 17.383 0 33.89-7.513 45.38-20.365 5.378 2.578 11.346 4.107 17.641 4.342-14.387 20.314-37.572 32.52-63.021 32.52zm94.59-77.353c0 16.474-13.402 29.876-29.876 29.876-39.635-1.641-39.623-58.116 0-59.751 16.474-.001 29.876 13.401 29.876 29.875zm-31.6-44.832c-6.283.239-12.241 1.767-17.61 4.341-11.49-12.853-27.997-20.366-45.38-20.366-10.735 0-10.33-16.497 0-16.497 25.196.001 48.62 12.408 62.99 32.522zm-105.117-74.65c-.451 10.886-16.037 10.976-16.497 0 0-17.382-7.513-33.889-20.365-45.379 2.574-5.369 4.102-11.327 4.341-17.61 20.113 14.371 32.521 37.794 32.521 62.989zm-77.354-94.589c16.474 0 29.876 13.402 29.876 29.875-1.641 39.634-58.117 39.622-59.752 0 0-16.473 13.402-29.875 29.876-29.875zm-44.832 31.6c.239 6.283 1.767 12.241 4.341 17.61-12.853 11.49-20.365 27.997-20.365 45.379 0 4.548-3.7 8.249-8.248 8.249-4.549 0-8.249-3.7-8.249-8.249-.001-25.195 12.407-48.618 32.521-62.989zm-74.649 105.118c10.926.415 10.925 16.083 0 16.497-17.302 0-33.875 7.54-45.365 20.372-5.381-2.582-11.355-4.113-17.656-4.348 14.387-20.315 37.572-32.521 63.021-32.521zm-94.59 77.353c0-16.474 13.402-29.875 29.876-29.875 39.635 1.641 39.623 58.116 0 59.751-16.474-.001-29.876-13.403-29.876-29.876zm31.569 44.832c6.289-.235 12.253-1.761 17.626-4.335 11.568 12.98 27.924 20.359 45.395 20.359 4.548 0 8.248 3.7 8.248 8.249 0 4.548-3.7 8.248-8.248 8.248-25.449 0-48.634-12.206-63.021-32.521zm105.148 74.649c0-10.319 16.497-10.791 16.497 0 0 17.382 7.513 33.889 20.365 45.379-2.574 5.369-4.102 11.327-4.341 17.61-20.113-14.371-32.521-37.793-32.521-62.989zm77.354 94.59c-16.474 0-29.876-13.402-29.876-29.875 1.641-39.634 58.117-39.622 59.752 0 0 16.473-13.402 29.875-29.876 29.875zm44.832-31.601c-.239-6.281-1.767-12.237-4.339-17.604 12.974-11.57 20.363-27.939 20.363-45.385 0-10.319 16.497-10.791 16.497 0 .001 25.196-12.407 48.618-32.521 62.989z"/><path d="m292.462 481.883c-20.105 20.104-52.818 20.104-72.924 0-2.93-2.929-7.678-2.929-10.607 0s-2.929 7.678 0 10.606c25.955 25.954 68.184 25.954 94.139 0 2.929-2.929 2.929-7.678 0-10.606-2.929-2.93-7.677-2.93-10.608 0z"/><path d="m219.538 30.117c20.105-20.104 52.818-20.104 72.924 0 2.93 2.929 7.677 2.929 10.607 0 2.929-2.929 2.929-7.678 0-10.606-25.955-25.953-68.184-25.953-94.139 0-2.929 2.929-2.929 7.678 0 10.606 2.929 2.929 7.677 2.929 10.608 0z"/><path d="m24.813 305.265c1.919 0 3.839-.732 5.304-2.197 2.929-2.929 2.929-7.678 0-10.606-20.105-20.105-20.105-52.819 0-72.924 2.929-2.929 2.929-7.678 0-10.606-2.93-2.929-7.678-2.929-10.607 0-25.953 25.954-25.953 68.183 0 94.137 1.465 1.464 3.385 2.196 5.303 2.196z"/><path d="m481.883 208.931c-2.929 2.929-2.929 7.678 0 10.606 20.105 20.105 20.105 52.819 0 72.924-2.929 2.929-2.929 7.678 0 10.606 2.93 2.929 7.677 2.929 10.607 0 25.953-25.954 25.953-68.183 0-94.137-2.929-2.927-7.678-2.927-10.607.001z"/><path d="m389.695 129.412h35.147l10.591 18.535c2.829 4.952 10.194 4.952 13.023 0l10.591-18.535h31.647c9.649 0 17.5-7.851 17.5-17.5v-56.139c0-9.649-7.851-17.5-17.5-17.5h-101c-9.649 0-17.5 7.851-17.5 17.5v56.139c.001 9.65 7.852 17.5 17.501 17.5zm-2.5-73.639c0-1.378 1.121-2.5 2.5-2.5h101c1.379 0 2.5 1.122 2.5 2.5v56.139c0 1.378-1.121 2.5-2.5 2.5h-36c-2.691 0-5.177 1.442-6.512 3.779l-6.238 10.917-6.238-10.917c-1.335-2.337-3.82-3.779-6.512-3.779h-39.5c-1.379 0-2.5-1.122-2.5-2.5z"/><path d="m122.305 382.587h-33.148l-10.591-18.534c-2.829-4.952-10.194-4.952-13.023 0l-10.591 18.534h-33.647c-9.649 0-17.5 7.851-17.5 17.5v56.14c0 9.649 7.851 17.5 17.5 17.5h101c9.649 0 17.5-7.851 17.5-17.5v-56.14c0-9.65-7.851-17.5-17.5-17.5zm2.5 73.639c0 1.378-1.121 2.5-2.5 2.5h-101c-1.379 0-2.5-1.122-2.5-2.5v-56.14c0-1.378 1.121-2.5 2.5-2.5h38c2.691 0 5.177-1.442 6.512-3.779l6.238-10.917 6.238 10.917c1.335 2.337 3.82 3.779 6.512 3.779h37.5c1.379 0 2.5 1.122 2.5 2.5z"/><path d="m17.5 121.304h103.14c9.649 0 17.5-7.851 17.5-17.5v-14.647l18.534-10.591c4.952-2.829 4.952-10.194 0-13.023l-18.534-10.591v-15.148c0-9.649-7.851-17.5-17.5-17.5h-47.658c-10.667 0-8.793 17.444 1.724 15h45.934c1.379 0 2.5 1.122 2.5 2.5v19.5c0 2.691 1.442 5.177 3.779 6.512l10.917 6.238-10.917 6.238c-2.337 1.335-3.779 3.82-3.779 6.512v19c0 1.378-1.121 2.5-2.5 2.5h-103.14c-1.379 0-2.5-1.122-2.5-2.5v-64c0-1.378 1.121-2.5 2.5-2.5h13.791c9.762 2.284 13.456-15 1.706-15h-15.497c-9.649 0-17.5 7.851-17.5 17.5v64c0 9.65 7.851 17.5 17.5 17.5z"/><path d="m494.5 390.695h-103.14c-9.649 0-17.5 7.851-17.5 17.5v14.647l-18.534 10.591c-4.952 2.829-4.952 10.194 0 13.023l18.534 10.591v15.147c0 9.649 7.851 17.5 17.5 17.5h30.747c9.697 0 9.697-15 0-15h-30.747c-1.379 0-2.5-1.122-2.5-2.5v-19.5c0-2.691-1.442-5.177-3.779-6.512l-10.917-6.238 10.917-6.238c2.337-1.335 3.779-3.82 3.779-6.512v-19c0-1.378 1.121-2.5 2.5-2.5h103.14c1.379 0 2.5 1.122 2.5 2.5v64c0 1.378-1.121 2.5-2.5 2.5h-32.493c-9.697 0-9.697 15 0 15h32.493c9.649 0 17.5-7.851 17.5-17.5v-64c0-9.648-7.851-17.499-17.5-17.499z"/><path d="m40 79.304c9.652 0 9.668-15 0-15-9.652 0-9.668 15 0 15z"/><path d="m68.805 79.304c9.652 0 9.668-15 0-15-9.652 0-9.668 15 0 15z"/><path d="m97.609 64.304c-9.652 0-9.668 15 0 15 9.652 0 9.668-15 0-15z"/><path d="m413.391 447.695c9.652 0 9.668-15 0-15-9.652 0-9.668 15 0 15z"/><path d="m442.195 432.695c-9.652 0-9.668 15 0 15 9.652 0 9.668-15 0-15z"/><path d="m471 432.695c-9.652 0-9.668 15 0 15 9.652 0 9.668-15 0-15z"/><path d="m411.391 92.5c9.652 0 9.668-15 0-15-9.652 0-9.668 15 0 15z"/><path d="m440.195 92.5c9.652 0 9.668-15 0-15-9.651 0-9.667 15 0 15z"/><path d="m469 92.5c9.652 0 9.668-15 0-15-9.652 0-9.668 15 0 15z"/><path d="m43 421.5c-9.652 0-9.668 15 0 15 9.652 0 9.668-15 0-15z"/><path d="m71.805 421.5c-9.652 0-9.668 15 0 15 9.651 0 9.667-15 0-15z"/><path d="m100.609 421.5c-9.652 0-9.668 15 0 15 9.652 0 9.668-15 0-15z"/></g></g></svg>